<svg id="artwork_background" data-name="artwork&amp;background" xmlns="http://www.w3.org/2000/svg" xmlns:xlink="http://www.w3.org/1999/xlink" viewBox="0 0 750 500"><defs><style>.cls-1,.cls-9{fill:none;}.cls-2{clip-path:url(#clip-path);}.cls-3,.cls-6,.cls-7,.cls-8{fill:#fff;}.cls-4{fill:#42394b;opacity:0.2;}.cls-5{fill:url(#linear-gradient);}.cls-6{opacity:0.6;}.cls-7{opacity:0.8;}.cls-8{opacity:0.5;}.cls-9{stroke:#fff;stroke-miterlimit:10;stroke-width:0.75px;}</style><clipPath id="clip-path"><rect class="cls-1" width="750" height="500"/></clipPath><linearGradient id="linear-gradient" x1="399.76" y1="138.07" x2="815.47" y2="470.94" gradientUnits="userSpaceOnUse"><stop offset="0.05" stop-color="#583e6b"/><stop offset="0.27" stop-color="#583e6b"/><stop offset="0.52" stop-color="#735973"/><stop offset="0.79" stop-color="#a38581"/><stop offset="0.9" stop-color="#b39586"/></linearGradient></defs><title>bg</title><g class="cls-2"><g id="background"><g id="background-2" data-name="background"><rect class="cls-3" width="750" height="500"/><path class="cls-4" d="M751.73,459c-37.53-22.65-77.47-20.29-120-9.63C542.54,471.77,447,501,353.89,490.32c-58.8-6.74-134.35-38.51-119.86-110.47,5.72-28.41,18.82-54.32,43.4-70.56,15.3-10.11,32.85-15.87,48.72-24.91,19.59-11.15,26.78-16.56,20.48-38.23-4-13.64,6.28-28.07,19.1-34.13s27.55-6,41.72-6.65a376.25,376.25,0,0,0,93.68-16.31c23.69-7.29,62.93-16.44,75.81-39.76C593.75,118.88,570.11,71,550.76,47,535.61,28.21,504-.3,477.61,0L751.73-3Z"/><path class="cls-5" d="M751.31,479c-69.09-28-146.58-22.41-220.54-13.74S381,485.08,308.71,467.08c-21.29-5.3-42.67-13.54-58.12-29.25-17-17.31-25.08-42.84-22.26-67.06S244.48,324,263.57,309c20.46-16,46.28-23.18,71.64-28.47C346,278.34,359.09,274,360.53,263c.63-4.77-1.33-9.44-2.2-14.17-2.53-13.76,4.63-28,15.22-37s24.15-13.65,37.61-17c38.89-9.59,79.92-9.86,117.71-23.19,10.81-3.82,21.38-8.76,30.25-16.08,24-19.77,31.73-55.42,22.82-85.34S547.6,14.65,520.26,0L751.73,0Z"/></g><g id="star"><path class="cls-6" d="M502.64,279a3.72,3.72,0,1,1-3.71-3.71A3.72,3.72,0,0,1,502.64,279Z"/><path class="cls-7" d="M542.87,369.85a1.29,1.29,0,1,1-1.28-1.28A1.28,1.28,0,0,1,542.87,369.85Z"/><path class="cls-7" d="M578.57,394.17a2.14,2.14,0,1,1-2.13-2.14A2.13,2.13,0,0,1,578.57,394.17Z"/><circle class="cls-7" cx="576.77" cy="424.46" r="2.47"/><circle class="cls-6" cx="667.7" cy="231.79" r="2.74"/><path class="cls-3" d="M250.94,371.31a2.39,2.39,0,1,1-2.38-2.38A2.39,2.39,0,0,1,250.94,371.31Z"/><path class="cls-6" d="M612.44,223.28a.89.89,0,1,1-.89-.89A.88.88,0,0,1,612.44,223.28Z"/><path class="cls-6" d="M653.75,199a2.24,2.24,0,1,1-2.24-2.24A2.24,2.24,0,0,1,653.75,199Z"/><circle class="cls-6" cx="662.22" cy="149.22" r="2.74"/><path class="cls-3" d="M729.37,75.31a1.56,1.56,0,1,1-1.56-1.55A1.56,1.56,0,0,1,729.37,75.31Z"/><circle class="cls-7" cx="616.17" cy="394.71" r="1.5"/><path class="cls-8" d="M571.48,171a2.24,2.24,0,1,1-2.24-2.24A2.24,2.24,0,0,1,571.48,171Z"/><circle class="cls-3" cx="560.63" cy="214.67" r="2.38"/><circle class="cls-7" cx="567.15" cy="352.58" r="2.1"/><path class="cls-7" d="M434.46,433.08a.91.91,0,1,1-1.28,0A.9.9,0,0,1,434.46,433.08Z"/><path class="cls-7" d="M464.24,426.62a1.51,1.51,0,1,1-2.13.06A1.5,1.5,0,0,1,464.24,426.62Z"/><path class="cls-7" d="M483.43,391.79a1.74,1.74,0,1,1-2.47.07A1.75,1.75,0,0,1,483.43,391.79Z"/><path class="cls-7" d="M438.43,411.2a1.48,1.48,0,1,1-2.09.05A1.47,1.47,0,0,1,438.43,411.2Z"/><path class="cls-7" d="M370.1,422.53a.91.91,0,1,1,.94-.87A.91.91,0,0,1,370.1,422.53Z"/><path class="cls-7" d="M352,447a1.51,1.51,0,0,1,.12-3,1.51,1.51,0,1,1-.12,3Z"/><path class="cls-7" d="M330.59,446.64A1.74,1.74,0,1,1,332.4,445,1.74,1.74,0,0,1,330.59,446.64Z"/><path class="cls-7" d="M381.54,441.6a1.48,1.48,0,1,1,1.53-1.42A1.47,1.47,0,0,1,381.54,441.6Z"/><path class="cls-3" d="M453.9,288.49a1.21,1.21,0,1,1,1.35-1.06A1.23,1.23,0,0,1,453.9,288.49Z"/><path class="cls-3" d="M430.81,340.16a2,2,0,1,1,2.67-1A2,2,0,0,1,430.81,340.16Z"/><path class="cls-7" d="M425.42,299.21a2.33,2.33,0,1,1,.91-3.16A2.33,2.33,0,0,1,425.42,299.21Z"/><path class="cls-7" d="M477,332a1.42,1.42,0,1,1,1.95.46A1.42,1.42,0,0,1,477,332Z"/><path class="cls-3" d="M400.51,281.3a2,2,0,1,1-2.74-.5A2,2,0,0,1,400.51,281.3Z"/><path class="cls-3" d="M702.86,20.17a3,3,0,1,1-3-3A3,3,0,0,1,702.86,20.17Z"/><path class="cls-3" d="M600.13,181.76a2.79,2.79,0,1,1-2.79,2.79A2.79,2.79,0,0,1,600.13,181.76Z"/><line class="cls-9" x1="591.53" y1="184.55" x2="608.73" y2="184.55"/><line class="cls-9" x1="600.13" y1="193.15" x2="600.13" y2="175.95"/><line class="cls-9" x1="594.77" y1="189.91" x2="605.27" y2="179.41"/><line class="cls-9" x1="605.19" y1="189.83" x2="594.85" y2="179.49"/><path class="cls-3" d="M275,406a2.79,2.79,0,1,1-2.79,2.79A2.79,2.79,0,0,1,275,406Z"/><line class="cls-9" x1="266.37" y1="408.82" x2="283.57" y2="408.82"/><line class="cls-9" x1="274.97" y1="417.42" x2="274.97" y2="400.22"/><line class="cls-9" x1="269.61" y1="414.18" x2="280.11" y2="403.68"/><line class="cls-9" x1="280.03" y1="414.1" x2="269.69" y2="403.76"/><path class="cls-3" d="M700.53,52.11a2.22,2.22,0,1,1-2.21,2.21A2.21,2.21,0,0,1,700.53,52.11Z"/><line class="cls-9" x1="693.7" y1="54.32" x2="707.36" y2="54.32"/><line class="cls-9" x1="700.53" y1="61.15" x2="700.53" y2="47.5"/><line class="cls-9" x1="696.27" y1="58.58" x2="704.61" y2="50.25"/><line class="cls-9" x1="704.54" y1="58.52" x2="696.34" y2="50.31"/></g></g></g></svg>