<svg id="artwork_background" data-name="artwork&amp;background" xmlns="http://www.w3.org/2000/svg" viewBox="0 0 750 500"><defs><style>.cls-1,.cls-9{fill:none}.cls-2{clip-path:url(#clip-path)}.cls-3,.cls-6,.cls-7,.cls-8{fill:#fff}.cls-4{fill:#42394b;opacity:.2}.cls-5{fill:url(#linear-gradient)}.cls-6{opacity:.6}.cls-7{opacity:.8}.cls-8{opacity:.5}.cls-9{stroke:#fff;stroke-miterlimit:10;stroke-width:.75px}</style><clipPath id="clip-path"><path class="cls-1" d="M0 0h750v500H0z"/></clipPath><linearGradient id="linear-gradient" x1="399.76" y1="138.07" x2="815.47" y2="470.94" gradientUnits="userSpaceOnUse"><stop offset=".05" stop-color="#583e6b"/><stop offset=".27" stop-color="#583e6b"/><stop offset=".52" stop-color="#735973"/><stop offset=".79" stop-color="#a38581"/><stop offset=".9" stop-color="#b39586"/></linearGradient></defs><title>bg</title><g class="cls-2"><g id="background"><g id="background-2" data-name="background"><path class="cls-3" d="M0 0h750v500H0z"/><path class="cls-4" d="M751.73 459c-37.53-22.65-77.47-20.29-120-9.63C542.54 471.77 447 501 353.89 490.32c-58.8-6.74-134.35-38.51-119.86-110.47 5.72-28.41 18.82-54.32 43.4-70.56 15.3-10.11 32.85-15.87 48.72-24.91 19.59-11.15 26.78-16.56 20.48-38.23-4-13.64 6.28-28.07 19.1-34.13s27.55-6 41.72-6.65a376.25 376.25 0 0 0 93.68-16.31c23.69-7.29 62.93-16.44 75.81-39.76 16.81-30.42-6.83-78.3-26.18-102.3C535.61 28.21 504-.3 477.61 0l274.12-3z"/><path class="cls-5" d="M751.31 479c-69.09-28-146.58-22.41-220.54-13.74S381 485.08 308.71 467.08c-21.29-5.3-42.67-13.54-58.12-29.25-17-17.31-25.08-42.84-22.26-67.06S244.48 324 263.57 309c20.46-16 46.28-23.18 71.64-28.47C346 278.34 359.09 274 360.53 263c.63-4.77-1.33-9.44-2.2-14.17-2.53-13.76 4.63-28 15.22-37s24.15-13.65 37.61-17c38.89-9.59 79.92-9.86 117.71-23.19 10.81-3.82 21.38-8.76 30.25-16.08 24-19.77 31.73-55.42 22.82-85.34S547.6 14.65 520.26 0h231.47z"/></g><g id="star"><path class="cls-6" d="M502.64 279a3.72 3.72 0 1 1-3.71-3.71 3.72 3.72 0 0 1 3.71 3.71z"/><path class="cls-7" d="M542.87 369.85a1.29 1.29 0 1 1-1.28-1.28 1.28 1.28 0 0 1 1.28 1.28zM578.57 394.17a2.14 2.14 0 1 1-2.13-2.14 2.13 2.13 0 0 1 2.13 2.14z"/><circle class="cls-7" cx="576.77" cy="424.46" r="2.47"/><circle class="cls-6" cx="667.7" cy="231.79" r="2.74"/><path class="cls-3" d="M250.94 371.31a2.39 2.39 0 1 1-2.38-2.38 2.39 2.39 0 0 1 2.38 2.38z"/><path class="cls-6" d="M612.44 223.28a.89.89 0 1 1-.89-.89.88.88 0 0 1 .89.89zM653.75 199a2.24 2.24 0 1 1-2.24-2.24 2.24 2.24 0 0 1 2.24 2.24z"/><circle class="cls-6" cx="662.22" cy="149.22" r="2.74"/><path class="cls-3" d="M729.37 75.31a1.56 1.56 0 1 1-1.56-1.55 1.56 1.56 0 0 1 1.56 1.55z"/><circle class="cls-7" cx="616.17" cy="394.71" r="1.5"/><path class="cls-8" d="M571.48 171a2.24 2.24 0 1 1-2.24-2.24 2.24 2.24 0 0 1 2.24 2.24z"/><circle class="cls-3" cx="560.63" cy="214.67" r="2.38"/><circle class="cls-7" cx="567.15" cy="352.58" r="2.1"/><path class="cls-7" d="M434.46 433.08a.91.91 0 1 1-1.28 0 .9.9 0 0 1 1.28 0zM464.24 426.62a1.51 1.51 0 1 1-2.13.06 1.5 1.5 0 0 1 2.13-.06zM483.43 391.79a1.74 1.74 0 1 1-2.47.07 1.75 1.75 0 0 1 2.47-.07zM438.43 411.2a1.48 1.48 0 1 1-2.09.05 1.47 1.47 0 0 1 2.09-.05zM370.1 422.53a.91.91 0 1 1 .94-.87.91.91 0 0 1-.94.87zM352 447a1.51 1.51 0 0 1 .12-3 1.51 1.51 0 1 1-.12 3zM330.59 446.64a1.74 1.74 0 1 1 1.81-1.64 1.74 1.74 0 0 1-1.81 1.64zM381.54 441.6a1.48 1.48 0 1 1 1.53-1.42 1.47 1.47 0 0 1-1.53 1.42z"/><path class="cls-3" d="M453.9 288.49a1.21 1.21 0 1 1 1.35-1.06 1.23 1.23 0 0 1-1.35 1.06zM430.81 340.16a2 2 0 1 1 2.67-1 2 2 0 0 1-2.67 1z"/><path class="cls-7" d="M425.42 299.21a2.33 2.33 0 1 1 .91-3.16 2.33 2.33 0 0 1-.91 3.16zM477 332a1.42 1.42 0 1 1 1.95.46A1.42 1.42 0 0 1 477 332z"/><path class="cls-3" d="M400.51 281.3a2 2 0 1 1-2.74-.5 2 2 0 0 1 2.74.5zM702.86 20.17a3 3 0 1 1-3-3 3 3 0 0 1 3 3zM600.13 181.76a2.79 2.79 0 1 1-2.79 2.79 2.79 2.79 0 0 1 2.79-2.79z"/><path class="cls-9" d="M591.53 184.55h17.2M600.13 193.15v-17.2M594.77 189.91l10.5-10.5M605.19 189.83l-10.34-10.34"/><path class="cls-3" d="M275 406a2.79 2.79 0 1 1-2.79 2.79A2.79 2.79 0 0 1 275 406z"/><path class="cls-9" d="M266.37 408.82h17.2M274.97 417.42v-17.2M269.61 414.18l10.5-10.5M280.03 414.1l-10.34-10.34"/><path class="cls-3" d="M700.53 52.11a2.22 2.22 0 1 1-2.21 2.21 2.21 2.21 0 0 1 2.21-2.21z"/><path class="cls-9" d="M693.7 54.32h13.66M700.53 61.15V47.5M696.27 58.58l8.34-8.33M704.54 58.52l-8.2-8.21"/></g></g></g></svg>