<?xml version="1.0" standalone="no"?>
<!DOCTYPE svg PUBLIC "-//W3C//DTD SVG 20010904//EN"
 "http://www.w3.org/TR/2001/REC-SVG-20010904/DTD/svg10.dtd">
<svg version="1.0" xmlns="http://www.w3.org/2000/svg"
 width="138.000000pt" height="138.000000pt" viewBox="0 0 138.000000 138.000000"
 preserveAspectRatio="xMidYMid meet">
<metadata>
Created by potrace 1.11, written by Peter Selinger 2001-2013
</metadata>
<g transform="translate(0.000000,138.000000) scale(0.100000,-0.100000)"
fill="#000000" stroke="none">
<path d="M585 1369 c-85 -13 -105 -19 -166 -43 -96 -40 -184 -105 -257 -190
-48 -57 -114 -195 -127 -265 -41 -224 -11 -395 95 -551 138 -202 366 -325 584
-315 50 2 100 6 111 8 207 47 344 147 448 326 69 117 111 277 101 381 -17 164
-41 232 -125 356 -68 100 -205 213 -306 253 -97 38 -260 57 -358 40z"/>
</g>
</svg>
